<svg xmlns="http://www.w3.org/2000/svg"  viewBox="0 0 1000 1000" width="1000px" height="1000px" clip-rule="evenodd"><g filter="url(#filter0_f_1_1278)" opacity=".65"><path fill="url(#paint0_radial_1_1278)" d="M317.215 617.611H682.785V688.458H317.215V617.611Z"/></g><path fill="#30B4F0" fill-rule="evenodd" d="M260.426 161.542C205.198 161.542 160.426 206.314 160.426 261.542V274.054C160.426 329.283 205.198 374.054 260.426 374.054H360.426C415.655 374.054 460.426 329.283 460.426 274.054V261.542C460.426 206.314 415.655 161.542 360.426 161.542H260.426ZM639.574 161.542C584.345 161.542 539.574 206.314 539.574 261.542V401.942C539.574 457.171 584.345 501.942 639.574 501.942H739.574C794.802 501.942 839.574 457.171 839.574 401.942V261.542C839.574 206.314 794.802 161.542 739.574 161.542H639.574ZM160.426 549.743C160.426 494.515 205.198 449.743 260.426 449.743H360.426C415.655 449.743 460.426 494.515 460.426 549.743V738.458C460.426 793.686 415.655 838.458 360.426 838.458H260.426C205.198 838.458 160.426 793.686 160.426 738.458V549.743ZM639.574 578.808C584.345 578.808 539.574 623.579 539.574 678.808V738.458C539.574 793.686 584.345 838.458 639.574 838.458H739.574C794.802 838.458 839.574 793.686 839.574 738.458V678.808C839.574 623.579 794.802 578.808 739.574 578.808H639.574Z" clip-rule="evenodd"/><mask id="aigcWcKAmP7xXrKi4tvG2a" style="mask-type:alpha" width="680" height="678" x="160" y="161" maskUnits="userSpaceOnUse"><path fill="#626F84" fill-rule="evenodd" d="M260.426 161.542C205.198 161.542 160.426 206.314 160.426 261.542V274.054C160.426 329.283 205.198 374.054 260.426 374.054H360.426C415.655 374.054 460.426 329.283 460.426 274.054V261.542C460.426 206.314 415.655 161.542 360.426 161.542H260.426ZM639.574 161.542C584.345 161.542 539.574 206.314 539.574 261.542V401.942C539.574 457.171 584.345 501.942 639.574 501.942H739.574C794.802 501.942 839.574 457.171 839.574 401.942V261.542C839.574 206.314 794.802 161.542 739.574 161.542H639.574ZM160.426 549.743C160.426 494.515 205.198 449.743 260.426 449.743H360.426C415.655 449.743 460.426 494.515 460.426 549.743V738.458C460.426 793.686 415.655 838.458 360.426 838.458H260.426C205.198 838.458 160.426 793.686 160.426 738.458V549.743ZM639.574 578.808C584.345 578.808 539.574 623.579 539.574 678.808V738.458C539.574 793.686 584.345 838.458 639.574 838.458H739.574C794.802 838.458 839.574 793.686 839.574 738.458V678.808C839.574 623.579 794.802 578.808 739.574 578.808H639.574Z" clip-rule="evenodd"/></mask><g mask="url(#aigcWcKAmP7xXrKi4tvG2a)"><g filter="url(#filter1_if_1_1278)"><path fill="url(#paint1_radial_1_1278)" fill-rule="evenodd" d="M260.426 161.542C205.198 161.542 160.426 206.314 160.426 261.542V274.054C160.426 329.283 205.198 374.054 260.426 374.054H360.426C415.655 374.054 460.426 329.283 460.426 274.054V261.542C460.426 206.314 415.655 161.542 360.426 161.542H260.426ZM639.574 161.542C584.345 161.542 539.574 206.314 539.574 261.542V401.942C539.574 457.171 584.345 501.942 639.574 501.942H739.574C794.802 501.942 839.574 457.171 839.574 401.942V261.542C839.574 206.314 794.802 161.542 739.574 161.542H639.574ZM160.426 549.743C160.426 494.515 205.198 449.743 260.426 449.743H360.426C415.655 449.743 460.426 494.515 460.426 549.743V738.458C460.426 793.686 415.655 838.458 360.426 838.458H260.426C205.198 838.458 160.426 793.686 160.426 738.458V549.743ZM639.574 578.808C584.345 578.808 539.574 623.579 539.574 678.808V738.458C539.574 793.686 584.345 838.458 639.574 838.458H739.574C794.802 838.458 839.574 793.686 839.574 738.458V678.808C839.574 623.579 794.802 578.808 739.574 578.808H639.574Z" clip-rule="evenodd"/></g><path fill="url(#paint2_radial_1_1278)" fill-opacity=".01" fill-rule="evenodd" d="M260.426 161.542C205.198 161.542 160.426 206.314 160.426 261.542V274.054C160.426 329.283 205.198 374.054 260.426 374.054H360.426C415.655 374.054 460.426 329.283 460.426 274.054V261.542C460.426 206.314 415.655 161.542 360.426 161.542H260.426ZM639.574 161.542C584.345 161.542 539.574 206.314 539.574 261.542V401.942C539.574 457.171 584.345 501.942 639.574 501.942H739.574C794.802 501.942 839.574 457.171 839.574 401.942V261.542C839.574 206.314 794.802 161.542 739.574 161.542H639.574ZM160.426 549.743C160.426 494.515 205.198 449.743 260.426 449.743H360.426C415.655 449.743 460.426 494.515 460.426 549.743V738.458C460.426 793.686 415.655 838.458 360.426 838.458H260.426C205.198 838.458 160.426 793.686 160.426 738.458V549.743ZM639.574 578.808C584.345 578.808 539.574 623.579 539.574 678.808V738.458C539.574 793.686 584.345 838.458 639.574 838.458H739.574C794.802 838.458 839.574 793.686 839.574 738.458V678.808C839.574 623.579 794.802 578.808 739.574 578.808H639.574Z" clip-rule="evenodd" opacity=".5"/><path fill="url(#paint3_radial_1_1278)" fill-rule="evenodd" d="M260.426 175.542C212.93 175.542 174.426 214.046 174.426 261.542V274.054C174.426 321.551 212.93 360.054 260.426 360.054H360.426C407.923 360.054 446.426 321.551 446.426 274.054V261.542C446.426 214.046 407.923 175.542 360.426 175.542H260.426ZM639.574 175.542C592.077 175.542 553.574 214.046 553.574 261.542V401.942C553.574 449.439 592.077 487.942 639.574 487.942H739.574C787.07 487.942 825.574 449.439 825.574 401.942V261.542C825.574 214.046 787.07 175.542 739.574 175.542H639.574ZM260.426 463.743C212.93 463.743 174.426 502.247 174.426 549.743V738.458C174.426 785.954 212.93 824.458 260.426 824.458H360.426C407.923 824.458 446.426 785.954 446.426 738.458V549.743C446.426 502.247 407.923 463.743 360.426 463.743H260.426ZM639.574 592.808C592.077 592.808 553.574 631.311 553.574 678.808V738.458C553.574 785.954 592.077 824.458 639.574 824.458H739.574C787.07 824.458 825.574 785.954 825.574 738.458V678.808C825.574 631.311 787.07 592.808 739.574 592.808H639.574ZM160.426 261.542C160.426 206.314 205.198 161.542 260.426 161.542H360.426C415.655 161.542 460.426 206.314 460.426 261.542V274.054C460.426 329.283 415.655 374.054 360.426 374.054H260.426C205.198 374.054 160.426 329.283 160.426 274.054V261.542ZM539.574 261.542C539.574 206.314 584.345 161.542 639.574 161.542H739.574C794.802 161.542 839.574 206.314 839.574 261.542V401.942C839.574 457.171 794.802 501.942 739.574 501.942H639.574C584.345 501.942 539.574 457.171 539.574 401.942V261.542ZM260.426 449.743C205.198 449.743 160.426 494.515 160.426 549.743V738.458C160.426 793.686 205.198 838.458 260.426 838.458H360.426C415.655 838.458 460.426 793.686 460.426 738.458V549.743C460.426 494.515 415.655 449.743 360.426 449.743H260.426ZM539.574 678.808C539.574 623.579 584.345 578.808 639.574 578.808H739.574C794.802 578.808 839.574 623.579 839.574 678.808V738.458C839.574 793.686 794.802 838.458 739.574 838.458H639.574C584.345 838.458 539.574 793.686 539.574 738.458V678.808Z" clip-rule="evenodd" opacity=".5"/></g><mask id="aigcWcKAmP7xXrKi4tvG2b" style="mask-type:alpha" width="680" height="678" x="160" y="161" maskUnits="userSpaceOnUse"><path fill="#30B4F0" fill-rule="evenodd" d="M260.426 161.542C205.198 161.542 160.426 206.314 160.426 261.542V274.054C160.426 329.283 205.198 374.054 260.426 374.054H360.426C415.655 374.054 460.426 329.283 460.426 274.054V261.542C460.426 206.314 415.655 161.542 360.426 161.542H260.426ZM639.574 161.542C584.345 161.542 539.574 206.314 539.574 261.542V401.942C539.574 457.171 584.345 501.942 639.574 501.942H739.574C794.802 501.942 839.574 457.171 839.574 401.942V261.542C839.574 206.314 794.802 161.542 739.574 161.542H639.574ZM160.426 549.743C160.426 494.515 205.198 449.743 260.426 449.743H360.426C415.655 449.743 460.426 494.515 460.426 549.743V738.458C460.426 793.686 415.655 838.458 360.426 838.458H260.426C205.198 838.458 160.426 793.686 160.426 738.458V549.743ZM639.574 578.808C584.345 578.808 539.574 623.579 539.574 678.808V738.458C539.574 793.686 584.345 838.458 639.574 838.458H739.574C794.802 838.458 839.574 793.686 839.574 738.458V678.808C839.574 623.579 794.802 578.808 739.574 578.808H639.574Z" clip-rule="evenodd"/></mask><g mask="url(#aigcWcKAmP7xXrKi4tvG2b)"><g style="mix-blend-mode:overlay" filter="url(#filter2_f_1_1278)" opacity=".4"><path fill="#A4E9FF" d="M323.782 550.893C368.845 507.985 650.751 307.861 717.048 370.875C783.345 433.889 723.773 680.576 678.71 723.484C633.646 766.393 458.799 899.879 349.48 873.167C240.161 846.455 278.719 593.801 323.782 550.893Z"/></g><g filter="url(#filter3_f_1_1278)" opacity=".8"><path fill="#0051C7" d="M126.255 420.764C164.798 339.596 438.847 -78.2389 556.367 -31.5577C673.886 15.1235 714.52 372.561 675.977 453.729C637.434 534.897 471.974 806.381 315.408 831.052C158.843 855.722 87.7118 501.932 126.255 420.764Z"/></g><g filter="url(#filter4_f_1_1278)" opacity=".8"><path fill="#0051C7" d="M762.603 732.681C792.861 687.402 988.861 458.02 1045.77 490.898C1102.68 523.776 1081.34 733.465 1051.08 778.744C1020.83 824.023 900.18 973.678 813.925 980.351C727.67 987.023 732.345 777.96 762.603 732.681Z"/></g></g><defs><filter id="filter0_f_1_1278" width="805.57" height="510.846" x="97.215" y="397.611" color-interpolation-filters="sRGB" filterUnits="userSpaceOnUse"><feFlood flood-opacity="0" result="BackgroundImageFix"/><feBlend in="SourceGraphic" in2="BackgroundImageFix" result="shape"/><feGaussianBlur result="effect1_foregroundBlur_1_1278" stdDeviation="110"/></filter><filter id="filter1_if_1_1278" width="839.147" height="836.915" x="80.426" y="81.542" color-interpolation-filters="sRGB" filterUnits="userSpaceOnUse"><feFlood flood-opacity="0" result="BackgroundImageFix"/><feBlend in="SourceGraphic" in2="BackgroundImageFix" result="shape"/><feColorMatrix in="SourceAlpha" result="hardAlpha" values="0 0 0 0 0 0 0 0 0 0 0 0 0 0 0 0 0 0 127 0"/><feOffset/><feGaussianBlur stdDeviation="10"/><feComposite in2="hardAlpha" k2="-1" k3="1" operator="arithmetic"/><feColorMatrix values="0 0 0 0 1 0 0 0 0 1 0 0 0 0 1 0 0 0 1 0"/><feBlend in2="shape" mode="overlay" result="effect1_innerShadow_1_1278"/><feGaussianBlur result="effect2_foregroundBlur_1_1278" stdDeviation="40"/></filter><filter id="filter2_f_1_1278" width="827.987" height="877.963" x="98.639" y="178.707" color-interpolation-filters="sRGB" filterUnits="userSpaceOnUse"><feFlood flood-opacity="0" result="BackgroundImageFix"/><feBlend in="SourceGraphic" in2="BackgroundImageFix" result="shape"/><feGaussianBlur result="effect1_foregroundBlur_1_1278" stdDeviation="90"/></filter><filter id="filter3_f_1_1278" width="934.122" height="1227.47" x="-64.039" y="-215.185" color-interpolation-filters="sRGB" filterUnits="userSpaceOnUse"><feFlood flood-opacity="0" result="BackgroundImageFix"/><feBlend in="SourceGraphic" in2="BackgroundImageFix" result="shape"/><feGaussianBlur result="effect1_foregroundBlur_1_1278" stdDeviation="90"/></filter><filter id="filter4_f_1_1278" width="698.635" height="852.82" x="562.749" y="307.687" color-interpolation-filters="sRGB" filterUnits="userSpaceOnUse"><feFlood flood-opacity="0" result="BackgroundImageFix"/><feBlend in="SourceGraphic" in2="BackgroundImageFix" result="shape"/><feGaussianBlur result="effect1_foregroundBlur_1_1278" stdDeviation="90"/></filter><radialGradient id="paint0_radial_1_1278" cx="0" cy="0" r="1" gradientTransform="rotate(-150.231 351.077 279.586) scale(170.295 118.818)" gradientUnits="userSpaceOnUse"><stop offset=".224" stop-color="#32C1F7"/><stop offset=".881" stop-color="#022D9A"/></radialGradient><radialGradient id="paint1_radial_1_1278" cx="0" cy="0" r="1" gradientTransform="matrix(772.5701 -264.04145 575.41628 1683.63496 414.516 611.758)" gradientUnits="userSpaceOnUse"><stop offset=".011" stop-color="#32C1F7"/><stop offset=".991" stop-color="#237CD5"/></radialGradient><radialGradient id="paint2_radial_1_1278" cx="0" cy="0" r="1" gradientTransform="matrix(685.24848 -715.75238 626.50545 599.80507 33.545 1016.15)" gradientUnits="userSpaceOnUse"><stop offset=".292" stop-color="#32C1F7"/><stop offset=".991" stop-color="#005BC7"/></radialGradient><radialGradient id="paint3_radial_1_1278" cx="0" cy="0" r="1" gradientTransform="matrix(-252.24866 804.77877 -391.6806 -122.76778 663.112 161.501)" gradientUnits="userSpaceOnUse"><stop offset=".068" stop-color="#DEFDFF"/><stop offset="1" stop-color="#74E6FF" stop-opacity="0"/></radialGradient></defs></svg>